<?xml version="1.0" standalone="no"?>
<!DOCTYPE svg PUBLIC "-//W3C//DTD SVG 20010904//EN"
 "http://www.w3.org/TR/2001/REC-SVG-20010904/DTD/svg10.dtd">
<svg version="1.0" xmlns="http://www.w3.org/2000/svg"
 width="1209.000000pt" height="707.000000pt" viewBox="0 0 1209.000000 707.000000"
 preserveAspectRatio="xMidYMid meet">

<g transform="translate(0.000000,707.000000) scale(0.100000,-0.100000)"
fill="#000000" stroke="none">
<path d="M5828 6115 c-64 -21 -145 -80 -283 -207 -146 -136 -185 -159 -275
-166 -69 -5 -70 -4 -105 31 -45 45 -49 104 -10 142 28 29 34 30 82 10 65 -27
72 -12 18 42 -34 34 -37 35 -99 31 -51 -3 -71 -10 -101 -32 -116 -89 -112
-301 7 -401 57 -49 105 -65 194 -65 160 0 275 36 417 132 110 74 116 76 253
93 62 8 127 21 145 31 30 15 34 15 61 -1 17 -9 76 -22 141 -30 133 -16 146
-20 240 -83 152 -103 233 -131 399 -139 113 -5 119 -5 172 21 55 27 97 70 132
136 27 51 25 172 -3 225 -42 80 -98 115 -183 115 -42 0 -51 -4 -79 -35 -42
-48 -42 -88 -1 -50 9 8 30 17 46 21 26 5 35 1 57 -26 31 -36 34 -68 12 -110
-23 -45 -68 -63 -136 -57 -83 7 -141 43 -282 174 -135 127 -218 187 -280 204
-58 16 -156 -1 -216 -38 l-46 -29 -65 33 c-78 39 -147 48 -212 28z m162 -61
c34 -12 31 -13 -48 -13 -123 -1 -163 -25 -355 -209 -124 -119 -186 -154 -282
-159 l-60 -3 75 27 c99 37 155 77 292 206 132 124 174 156 220 167 39 10 108
2 158 -16z m432 -5 c20 -10 90 -70 156 -133 143 -136 222 -192 317 -223 l70
-23 -71 4 c-99 5 -150 35 -308 186 -168 159 -211 183 -325 178 -67 -2 -78 -1
-65 9 10 7 34 15 53 19 20 3 41 7 46 9 19 7 90 -8 127 -26z"/>
<path d="M7370 5017 c-135 -38 -192 -141 -141 -254 24 -53 76 -83 201 -118
109 -31 120 -37 120 -75 0 -37 -21 -52 -78 -57 -56 -5 -91 11 -112 52 -21 41
-28 45 -85 45 -69 0 -79 -8 -70 -60 9 -53 58 -110 123 -141 94 -46 266 -23
325 44 73 82 58 215 -29 264 -22 11 -78 33 -126 47 -130 40 -171 84 -113 122
33 22 123 15 137 -11 23 -40 48 -55 92 -55 61 0 77 17 64 70 -25 97 -183 162
-308 127z"/>
<path d="M9178 5016 c-63 -17 -120 -58 -146 -105 -20 -35 -22 -53 -22 -205 0
-196 10 -227 87 -276 129 -82 311 -50 380 67 25 43 28 58 31 174 7 206 -19
274 -120 323 -66 31 -148 40 -210 22z m127 -130 c18 -8 38 -23 44 -34 14 -26
14 -267 1 -293 -13 -24 -61 -49 -95 -49 -34 0 -82 25 -95 49 -13 25 -13 267 0
291 13 24 57 49 88 50 12 0 38 -6 57 -14z"/>
<path d="M1812 4708 l3 -303 186 -3 186 -2 53 27 c63 34 90 76 90 146 0 54
-18 96 -54 125 l-25 19 25 23 c51 49 54 145 6 202 -50 59 -86 68 -290 68
l-182 0 2 -302z m352 156 c36 -36 11 -79 -54 -91 l-45 -9 0 -54 0 -55 50 -7
c72 -10 98 -55 55 -98 -17 -17 -33 -20 -115 -20 l-95 0 0 175 0 175 94 0 c73
0 98 -4 110 -16z"/>
<path d="M2883 4973 c-38 -92 -203 -544 -203 -558 0 -12 14 -15 64 -15 70 0
77 5 95 63 l13 37 114 0 115 0 21 -50 21 -50 69 0 c68 0 70 1 65 23 -5 25
-188 516 -208 560 -12 26 -16 27 -81 27 l-69 0 -16 -37z m121 -235 c16 -46 31
-89 34 -95 3 -10 -14 -13 -67 -13 -39 0 -71 4 -71 9 0 17 63 181 69 181 4 0
20 -37 35 -82z"/>
<path d="M3630 4705 l0 -306 68 3 67 3 3 238 2 237 83 0 c89 -1 110 -9 126
-53 20 -52 -13 -89 -91 -102 l-38 -6 0 -63 c0 -62 2 -67 63 -158 l63 -93 73
-3 c41 -2 78 1 82 5 4 4 -23 54 -61 110 l-70 101 34 20 c73 43 110 143 86 232
-15 56 -72 114 -125 129 -22 6 -113 11 -202 11 l-163 0 0 -305z"/>
<path d="M4540 4706 l0 -306 179 0 c192 0 242 9 290 53 68 63 67 197 -3 242
l-26 17 25 30 c31 37 39 67 32 125 -6 55 -30 90 -83 117 -35 19 -60 21 -226
24 l-188 3 0 -305z m348 162 c17 -17 15 -63 -3 -78 -8 -6 -33 -14 -55 -17
l-41 -6 3 -56 3 -56 44 -7 c54 -9 71 -23 71 -59 0 -50 -21 -59 -131 -59 l-99
0 0 175 0 175 98 0 c63 0 102 -4 110 -12z"/>
<path d="M5466 4994 c-9 -24 -7 -567 2 -582 7 -9 61 -12 238 -10 l229 3 3 48
c5 76 2 77 -174 77 l-154 0 0 60 0 59 138 3 137 3 0 60 0 60 -137 3 -138 3 0
49 0 49 153 3 152 3 3 63 3 62 -224 0 c-196 0 -226 -2 -231 -16z"/>
<path d="M6340 4705 l0 -306 68 3 67 3 3 238 2 237 83 0 c74 0 86 -3 105 -23
26 -27 29 -79 7 -101 -15 -14 -75 -36 -102 -36 -9 0 -13 -20 -13 -67 1 -67 2
-70 63 -158 l62 -90 78 -3 c60 -2 77 0 77 11 0 7 -29 56 -65 108 l-65 94 22
15 c65 42 108 115 108 181 0 82 -62 167 -135 188 -22 6 -113 11 -202 11 l-163
0 0 -305z"/>
<path d="M8100 4705 l0 -305 70 0 69 0 3 118 3 117 103 3 102 3 0 -108 c0 -59
4 -114 9 -121 5 -9 27 -12 72 -10 l64 3 0 300 0 300 -67 3 c-80 3 -77 9 -81
-138 l-2 -95 -100 0 -100 0 -3 118 -3 117 -69 0 -70 0 0 -305z"/>
<path d="M9915 4997 c-3 -7 -4 -143 -3 -302 l3 -290 70 0 70 0 3 88 3 87 63 0
c90 0 160 24 206 70 104 104 60 297 -77 344 -60 21 -331 23 -338 3z m306 -146
c31 -31 36 -55 18 -94 -16 -34 -44 -47 -114 -49 l-60 -3 -3 88 -3 87 66 0 c60
0 69 -3 96 -29z"/>
<path d="M1815 3780 c-449 -43 -806 -273 -942 -607 -60 -148 -63 -182 -63
-843 0 -660 3 -694 68 -847 123 -290 409 -495 800 -575 137 -28 354 -30 485
-4 506 98 867 451 867 847 0 156 -7 159 -319 159 -153 0 -249 -4 -264 -11 -25
-11 -57 -66 -57 -98 0 -11 -9 -49 -21 -86 -34 -111 -130 -192 -269 -226 -67
-17 -236 -17 -307 -1 -152 34 -266 135 -307 271 -22 76 -28 285 -19 736 l9
400 28 62 c31 69 106 147 172 181 80 41 154 56 274 56 225 0 359 -72 443 -239
46 -91 40 -90 276 -93 253 -4 305 1 339 35 24 24 25 29 19 106 -19 264 -197
506 -475 646 -199 100 -502 154 -737 131z"/>
<path d="M6434 3723 c-12 -2 -32 -15 -45 -29 l-24 -26 0 -1335 0 -1335 28 -24
28 -24 721 0 c602 0 738 3 826 16 236 35 420 120 556 259 112 113 177 260 196
437 30 295 -93 555 -329 696 l-44 26 34 25 c176 130 261 308 262 554 0 191
-57 344 -180 477 -152 165 -367 256 -659 280 -112 9 -1325 12 -1370 3z m1236
-596 c185 -4 232 -15 287 -69 71 -68 79 -224 17 -305 -55 -72 -132 -99 -312
-111 -175 -12 -166 1 -170 -255 -2 -111 0 -217 3 -235 10 -56 45 -68 203 -75
228 -9 312 -52 349 -176 30 -103 0 -226 -68 -285 -78 -66 -115 -71 -559 -71
l-395 0 -3 785 c-1 432 0 790 2 795 3 10 219 10 646 2z"/>
<path d="M3577 3709 c-47 -28 -47 -21 -47 -993 0 -572 4 -953 11 -1017 42
-416 333 -695 822 -788 147 -28 283 -35 417 -21 534 54 888 320 965 725 11 55
14 273 15 1025 1 525 1 970 1 988 -1 23 -10 43 -30 63 l-29 29 -270 0 c-268 0
-269 0 -294 -23 -21 -20 -27 -37 -33 -97 -4 -40 -6 -460 -4 -934 4 -946 7
-903 -56 -1010 -87 -148 -324 -223 -543 -171 -166 39 -275 154 -302 316 -6 41
-10 393 -10 962 l0 899 -29 29 -29 29 -269 0 c-172 0 -275 -4 -286 -11z"/>
<path d="M9303 3705 c-12 -9 -27 -32 -33 -53 -13 -47 -14 -2570 0 -2627 18
-81 -69 -75 1057 -75 l1002 0 28 24 28 24 0 242 0 242 -26 22 c-40 34 -132 38
-819 35 l-605 -4 0 280 0 280 591 3 591 2 26 26 c34 33 40 87 36 301 -4 193
-12 214 -76 232 -24 7 -242 11 -605 11 l-568 0 0 230 0 230 649 0 c434 0 658
4 679 11 55 19 62 51 62 283 0 220 -7 263 -48 285 -15 8 -313 11 -984 11 -849
0 -966 -2 -985 -15z"/>
</g>
</svg>
