<?xml version="1.0" standalone="no"?>
<!DOCTYPE svg PUBLIC "-//W3C//DTD SVG 20010904//EN"
 "http://www.w3.org/TR/2001/REC-SVG-20010904/DTD/svg10.dtd">
<svg version="1.0" xmlns="http://www.w3.org/2000/svg"
 width="1209.000000pt" height="707.000000pt" viewBox="0 0 1209.000000 707.000000"
 preserveAspectRatio="xMidYMid meet">

<g transform="translate(0.000000,707.000000) scale(0.100000,-0.100000)"
fill="#000000" stroke="none">
<path d="M5812 6111 c-66 -25 -105 -55 -268 -204 -144 -132 -191 -159 -281
-165 -61 -4 -64 -3 -98 31 -27 27 -35 43 -35 72 0 77 46 109 112 76 41 -20 55
-13 39 18 -22 41 -61 61 -118 61 -64 0 -99 -16 -141 -64 -37 -43 -52 -91 -52
-171 0 -78 32 -148 93 -201 57 -50 101 -64 209 -64 143 0 302 52 409 133 79
61 122 77 242 91 62 7 126 20 144 29 29 16 34 15 75 -3 25 -11 81 -22 129 -26
113 -9 155 -25 262 -97 133 -89 227 -120 387 -124 125 -4 125 -4 178 27 112
65 165 193 131 314 -31 113 -137 182 -236 154 -35 -10 -73 -56 -73 -91 0 -16
2 -16 28 2 43 31 66 34 95 11 35 -27 43 -70 21 -115 -24 -51 -64 -69 -136 -62
-81 7 -144 47 -286 181 -226 212 -321 245 -479 165 l-61 -31 -64 31 c-84 42
-155 48 -226 22z m603 -62 c22 -10 100 -74 173 -143 153 -143 205 -180 305
-211 l72 -23 -46 -1 c-110 -2 -175 36 -359 213 -135 129 -185 156 -295 156
-88 1 -86 15 3 29 58 10 95 4 147 -20z m-430 6 c29 -13 26 -13 -48 -14 -116
-1 -158 -26 -348 -206 -124 -117 -190 -155 -282 -161 l-62 -5 77 29 c103 38
162 79 291 202 120 115 143 134 184 155 35 19 148 19 188 0z"/>
<path d="M7375 5021 c-101 -26 -156 -81 -163 -165 -9 -109 46 -163 218 -212
110 -31 120 -37 120 -74 0 -37 -21 -52 -78 -57 -60 -5 -92 12 -116 60 l-18 38
-67 -3 -66 -3 1 -42 c3 -148 228 -230 396 -145 62 32 98 90 98 159 0 107 -41
142 -233 199 -99 29 -134 74 -85 108 12 9 42 16 67 16 39 0 49 -5 81 -40 33
-36 41 -40 86 -40 69 0 77 7 65 59 -11 51 -51 97 -106 122 -46 21 -156 32
-200 20z"/>
<path d="M9175 5017 c-148 -49 -181 -116 -173 -347 4 -110 8 -132 29 -170 97
-176 416 -145 468 45 14 53 14 283 0 326 -7 19 -23 49 -37 68 -50 67 -197 107
-287 78z m130 -131 c18 -8 38 -23 44 -34 6 -12 11 -76 11 -147 0 -143 -8 -166
-67 -186 -50 -16 -108 2 -128 41 -18 34 -21 242 -5 285 10 26 58 54 93 55 10
0 33 -6 52 -14z"/>
<path d="M1828 5014 c-17 -5 -18 -29 -18 -310 l0 -304 188 0 c177 0 190 2 239
24 58 27 82 58 93 117 11 57 -3 106 -40 144 l-32 33 20 20 c29 29 46 92 38
137 -9 47 -65 108 -113 124 -38 13 -343 25 -375 15z m334 -151 c39 -35 12 -80
-56 -89 l-47 -7 3 -56 3 -56 42 -6 c74 -9 104 -58 63 -99 -17 -17 -33 -20
-115 -20 l-95 0 0 175 0 175 92 0 c71 0 95 -4 110 -17z"/>
<path d="M4547 5006 c-15 -16 -17 -45 -17 -289 0 -150 3 -282 6 -294 6 -23 8
-23 193 -23 202 0 240 8 288 61 61 66 56 186 -10 235 l-25 19 26 28 c21 22 27
39 30 90 3 52 0 67 -20 97 -43 65 -92 80 -284 87 -152 5 -171 4 -187 -11z
m341 -138 c16 -16 15 -63 -1 -76 -7 -6 -32 -14 -55 -18 l-42 -7 0 -57 0 -57
45 -5 c54 -7 75 -22 75 -56 0 -51 -23 -62 -132 -62 l-98 0 0 175 0 175 98 0
c63 0 102 -4 110 -12z"/>
<path d="M2893 4998 c-16 -25 -220 -583 -216 -590 2 -5 35 -8 73 -8 l68 0 18
50 18 51 115 -3 115 -3 17 -45 17 -45 71 -3 c53 -2 71 0 71 10 0 7 -49 144
-108 303 l-107 290 -72 3 c-50 2 -74 -1 -80 -10z m114 -273 l31 -95 -70 0
c-52 0 -69 3 -66 13 3 6 17 49 32 95 15 45 31 82 35 82 3 0 21 -43 38 -95z"/>
<path d="M3630 4705 l0 -305 70 0 70 0 0 240 0 240 76 0 c103 0 134 -17 134
-76 0 -37 -36 -74 -72 -74 -53 0 -58 -7 -58 -79 1 -64 2 -68 63 -156 l62 -90
74 -3 c41 -2 78 1 83 6 5 5 -23 53 -62 110 l-70 101 27 15 c118 61 137 236 37
327 -46 42 -84 49 -265 49 l-169 0 0 -305z"/>
<path d="M5465 4997 c-3 -7 -4 -143 -3 -302 l3 -290 235 0 235 0 3 54 c2 37
-1 57 -10 62 -7 5 -82 9 -165 9 l-153 0 0 60 0 59 138 3 137 3 0 60 0 60 -137
3 -138 3 0 49 0 49 153 3 152 3 3 63 3 62 -226 0 c-172 0 -227 -3 -230 -13z"/>
<path d="M6340 4705 l0 -305 70 0 70 0 0 240 0 240 79 0 c64 0 83 -4 105 -21
52 -41 19 -129 -50 -129 -48 0 -54 -8 -54 -79 0 -66 1 -68 63 -157 l63 -89 73
-3 c41 -2 78 1 82 5 5 5 -23 54 -61 110 l-70 101 34 20 c102 60 126 211 48
304 -49 58 -87 68 -279 68 l-173 0 0 -305z"/>
<path d="M8100 4705 l0 -305 70 0 69 0 3 118 3 117 100 0 100 0 5 -115 5 -115
70 0 70 0 3 303 2 303 -72 -3 -73 -3 -5 -115 -5 -115 -100 0 -100 0 -3 118 -3
117 -69 0 -70 0 0 -305z"/>
<path d="M9915 4997 c-3 -7 -4 -143 -3 -302 l3 -290 70 0 70 0 3 86 3 87 87 4
c156 8 242 83 242 213 0 89 -66 182 -145 204 -58 16 -324 15 -330 -2z m307
-145 c33 -32 30 -88 -6 -118 -22 -20 -38 -24 -92 -24 l-64 0 0 86 0 86 70 -4
c55 -3 75 -8 92 -26z"/>
<path d="M1775 3779 c-106 -14 -262 -54 -351 -89 -280 -111 -501 -332 -574
-573 -45 -149 -45 -155 -45 -782 0 -644 1 -659 54 -811 67 -189 224 -365 426
-475 129 -71 226 -106 387 -140 137 -30 373 -32 497 -6 316 68 561 212 717
424 94 126 144 269 147 421 2 97 -12 135 -59 152 -14 6 -138 10 -275 10 -298
0 -285 5 -314 -129 -41 -186 -145 -274 -357 -301 -92 -11 -216 0 -290 26 -108
38 -200 123 -240 222 -23 57 -23 60 -26 580 -3 570 -1 594 53 687 86 147 293
225 516 196 158 -21 262 -84 329 -201 21 -36 50 -78 63 -95 l25 -30 261 0 261
0 26 27 c24 23 27 35 27 86 -1 68 -32 191 -69 268 -152 321 -521 524 -979 539
-77 2 -171 0 -210 -6z"/>
<path d="M3617 3720 c-21 -4 -48 -17 -60 -29 l-22 -22 0 -1007 0 -1007 22 -85
c90 -340 360 -566 787 -658 167 -35 416 -37 581 -4 258 51 452 146 602 293
139 136 210 291 233 504 14 126 13 1899 -1 1948 -19 69 -30 72 -314 72 -137 0
-262 -3 -277 -8 -15 -4 -36 -19 -45 -34 -17 -25 -18 -91 -23 -968 l-5 -940
-24 -60 c-47 -115 -156 -201 -294 -231 -224 -48 -452 33 -534 191 -47 90 -47
75 -53 1060 -4 713 -8 935 -17 952 -9 14 -29 25 -63 32 -56 12 -433 13 -493 1z"/>
<path d="M6412 3715 c-18 -8 -37 -26 -42 -40 -6 -17 -10 -497 -10 -1345 l0
-1319 23 -26 c14 -17 39 -30 67 -36 60 -11 1119 -11 1335 1 355 19 564 96 742
276 56 56 82 93 117 166 64 132 80 205 79 364 0 148 -19 228 -81 348 -45 85
-155 201 -237 247 l-58 33 23 15 c62 41 167 159 201 226 88 170 100 397 34
588 -63 181 -186 310 -380 403 -112 53 -207 80 -353 99 -162 21 -1410 21
-1460 0z m1473 -613 c27 -12 58 -30 69 -40 58 -52 76 -201 33 -283 -29 -55
-98 -103 -169 -118 -29 -7 -102 -15 -163 -18 -103 -6 -112 -8 -137 -34 l-28
-27 0 -222 0 -222 29 -29 c29 -28 32 -29 128 -29 290 0 404 -75 407 -265 1
-134 -68 -224 -197 -256 -38 -10 -158 -13 -442 -14 l-390 0 -3 793 -2 793 407
-3 c401 -3 409 -3 458 -26z"/>
<path d="M9352 3721 c-24 -4 -53 -17 -65 -30 l-22 -22 -3 -1307 c-2 -921 0
-1318 8 -1345 22 -77 -50 -72 1010 -75 520 -2 969 0 999 3 41 5 61 14 83 35
l28 28 0 227 c0 195 -2 231 -17 256 -9 15 -24 32 -32 36 -9 4 -330 9 -713 11
l-698 3 0 274 0 274 588 3 c466 2 592 6 610 16 45 26 52 65 52 280 0 190 -1
201 -23 233 -12 18 -33 36 -47 40 -14 4 -285 7 -602 8 l-578 1 0 230 0 230
655 0 c712 0 698 -1 723 55 8 18 12 98 12 250 0 219 -1 225 -23 250 -14 17
-39 30 -67 36 -53 10 -1815 10 -1878 0z"/>
</g>
</svg>
